<svg width="152" height="96" viewBox="0 0 152 96" fill="none" xmlns="http://www.w3.org/2000/svg">
<path d="M44.376 24.1795C34.5623 17.1799 24.7487 10.1804 18.4047 0.065084C15.0541 -0.0885299 11.7035 -0.242143 11.5844 3.0272C10.1405 11.8347 2.90765 22.8592 0.00131477 34.4519C-0.117761 37.7213 7.88929 38.131 8.65242 35.6408C10.6318 29.182 12.8486 22.734 14.3396 19.5276C19.2003 41.7069 49.6474 76.8306 100.058 90.308C114.757 94.2378 131.876 96.7519 148.803 95.7972C151.893 95.6229 154.413 91.0299 148.04 91.2766C132.378 91.8828 116.211 90.2337 101.159 86.2096C60.3501 75.2993 26.9049 42.7632 21.1237 17.1976C24.7719 18.9759 31.9522 26.8054 37.4366 30.4109C40.5228 32.4398 47.6075 27.6024 44.376 24.1795Z" fill="#e80566"/>
</svg>
